<svg width="44" height="44" viewBox="0 0 44 44" fill="none" xmlns="http://www.w3.org/2000/svg">
<mask id="path-1-inside-1_8_1307" fill="white">
<path d="M0 22C0 9.84974 9.84974 0 22 0V0C34.1503 0 44 9.84974 44 22V22C44 34.1503 34.1503 44 22 44V44C9.84974 44 0 34.1503 0 22V22Z"/>
</mask>
<path d="M0 22M44 22M44 22M0 22M22 0M44 22M22 44M0 22M22 44V42C10.9543 42 2 33.0457 2 22H0H-2C-2 35.2548 8.74517 46 22 46V44ZM44 22H42C42 33.0457 33.0457 42 22 42V44V46C35.2548 46 46 35.2548 46 22H44ZM22 0V2C33.0457 2 42 10.9543 42 22H44H46C46 8.74517 35.2548 -2 22 -2V0ZM22 0V-2C8.74517 -2 -2 8.74517 -2 22H0H2C2 10.9543 10.9543 2 22 2V0Z" fill="#E84A4A" mask="url(#path-1-inside-1_8_1307)"/>
<path d="M22 30.2498C17.4166 30.2498 14.6666 27.2248 14.6666 22.9165C14.6666 19.7082 16.6833 17.4165 19.8 17.4165C20.9 17.4165 21.3583 17.7832 22 17.7832C22.6416 17.7832 23.1 17.4165 24.2 17.4165C27.3166 17.4165 29.3333 19.7082 29.3333 22.9165C29.3333 27.2248 26.5833 30.2498 22 30.2498Z" fill="#E84A4A" stroke="#E84A4A" stroke-width="1.28333"/>
<path d="M21.5417 17.4164C21.2667 15.9498 21.9084 14.2081 23.925 13.9331M19.7084 14.6664C20.4417 15.0331 21.175 16.1331 21.3584 17.1414" stroke="#2E8E5E" stroke-width="1.28333" stroke-linecap="round"/>
</svg>
